<svg xmlns="http://www.w3.org/2000/svg" xmlns:xlink="http://www.w3.org/1999/xlink" width="90.963" height="27" viewBox="0 0 90.963 27">
  <defs>
    <clipPath id="clip-path">
      <path id="Path_17" data-name="Path 17" d="M27.662,22H23.244a.279.279,0,0,0-.126.21,1.376,1.376,0,0,0,.042.652c.358,1.388.694,2.777,1.052,4.186.589,2.293,1.157,4.607,1.746,6.9.589,2.335,1.157,4.649,1.746,6.984l1.578,6.248c.084.316.168.631.273.947a.978.978,0,0,0,.273.442.378.378,0,0,0,.189.084h4.27a.16.16,0,0,0,.168-.126.39.39,0,0,0,.042-.147v-.316c-.021-.105-.042-.189-.063-.295l-.947-3.723L31.806,37.4l-1.767-6.963c-.547-2.188-1.115-4.4-1.662-6.584-.105-.4-.189-.778-.316-1.157A.861.861,0,0,0,27.662,22Z" transform="translate(-23.096 -22)"/>
    </clipPath>
    <clipPath id="clip-path-2">
      <path id="Path_29" data-name="Path 29" d="M59.918,48.732H55.479a.279.279,0,0,1-.126-.21,1.711,1.711,0,0,1,.042-.652l1.052-4.186c.589-2.293,1.157-4.607,1.746-6.9L59.96,29.82l1.578-6.248c.084-.316.168-.631.273-.947a.978.978,0,0,1,.273-.442.378.378,0,0,1,.189-.084h4.27a.167.167,0,0,1,.168.105.39.39,0,0,1,.042.147v.316c-.021.105-.042.189-.063.295l-.947,3.723-1.683,6.647L62.295,40.3c-.547,2.188-1.115,4.4-1.662,6.584-.105.4-.189.778-.316,1.157A1.028,1.028,0,0,1,59.918,48.732Z" transform="translate(-55.34 -22.1)"/>
    </clipPath>
  </defs>
  <g id="Artboard_1_7" data-name="Artboard 1_7" transform="translate(-23.096 -20.975)">
    <path id="Path_1" data-name="Path 1" d="M130,22H119.063a.467.467,0,0,0-.463.463V48.106a.467.467,0,0,0,.463.463H130a.467.467,0,0,0,.463-.463V44.425a.467.467,0,0,0-.463-.463h-6.816V37.356h5.89a.467.467,0,0,0,.463-.463v-3.45a.467.467,0,0,0-.463-.463h-5.89V26.376H130a.467.467,0,0,0,.463-.463v-3.45A.481.481,0,0,0,130,22Z" transform="translate(-75.414 -0.809)" fill="#0e1f4d"/>
    <path id="Path_2" data-name="Path 2" d="M196.645,36.678a5.75,5.75,0,0,0,2.335-2.566,10.111,10.111,0,0,0,.736-4.039c0-5.3-2.335-7.973-6.942-7.973h-5.911a.467.467,0,0,0-.463.463V48.206a.467.467,0,0,0,.463.463h3.681a.467.467,0,0,0,.463-.463V37.688h1.409l3.324,10.623a.455.455,0,0,0,.442.316h3.892a.45.45,0,0,0,.379-.189.5.5,0,0,0,.063-.421Zm-5.638-10.224h1.452a2.549,2.549,0,0,1,2.209.8,2.914,2.914,0,0,1,.358,1.094,12.851,12.851,0,0,1,0,3.282,3.193,3.193,0,0,1-.337,1.073,1.512,1.512,0,0,1-.715.589,3.247,3.247,0,0,1-1.346.231h-1.641V26.455Z" transform="translate(-128.951 -0.888)" fill="#0e1f4d"/>
    <path id="Path_3" data-name="Path 3" d="M269.839,22H259.3a.467.467,0,0,0-.463.463h0v3.45a.467.467,0,0,0,.463.463h5.911L258.521,44.7a.358.358,0,0,0-.021.147v3.24a.467.467,0,0,0,.463.463h10.918a.467.467,0,0,0,.463-.463v-3.45a.467.467,0,0,0-.463-.463h-6.437l6.837-18.659a.41.41,0,0,0,.021-.168V22.463a.454.454,0,0,0-.463-.463Z" transform="translate(-185.884 -0.809)" fill="#0e1f4d"/>
    <path id="Path_4" data-name="Path 4" d="M337.1,22H326.163a.467.467,0,0,0-.463.463h0V48.106a.467.467,0,0,0,.463.463H337.1a.467.467,0,0,0,.463-.463V44.425a.467.467,0,0,0-.463-.463h-6.816V37.356h5.89a.467.467,0,0,0,.463-.463v-3.45a.467.467,0,0,0-.463-.463h-5.89V26.376H337.1a.467.467,0,0,0,.463-.463h0v-3.45A.467.467,0,0,0,337.1,22Z" transform="translate(-238.947 -0.809)" fill="#0e1f4d"/>
    <path id="Path_5" data-name="Path 5" d="M405.237,24.767a6.48,6.48,0,0,0-1.536-2.146,7.154,7.154,0,0,0-2.125-1.22,6.787,6.787,0,0,0-4.733,0,6.254,6.254,0,0,0-2.1,1.241,6.174,6.174,0,0,0-1.557,2.125,6.992,6.992,0,0,0-.589,2.924V41.238a6.863,6.863,0,0,0,.589,2.966,6.155,6.155,0,0,0,1.536,2.062,6.248,6.248,0,0,0,2.125,1.283,6.817,6.817,0,0,0,6.879-1.283,6.1,6.1,0,0,0,1.515-2.062,7.185,7.185,0,0,0,.589-2.966V27.691A6.993,6.993,0,0,0,405.237,24.767Zm-7.489,1.3a2.284,2.284,0,0,1,2.9,0,1.982,1.982,0,0,1,.589,1.62V41.238a1.982,1.982,0,0,1-.589,1.62,2.284,2.284,0,0,1-2.9,0,1.982,1.982,0,0,1-.589-1.62V27.691a2.127,2.127,0,0,1,.589-1.62Z" transform="translate(-291.768)" fill="#0e1f4d"/>
    <path id="Path_6" data-name="Path 6" d="M27.662,22H23.244a.279.279,0,0,0-.126.21,1.376,1.376,0,0,0,.042.652c.358,1.388.694,2.777,1.052,4.186.589,2.293,1.157,4.607,1.746,6.9.589,2.335,1.157,4.649,1.746,6.984l1.578,6.248c.084.316.168.631.273.947a.978.978,0,0,0,.273.442.378.378,0,0,0,.189.084h4.27a.16.16,0,0,0,.168-.126.39.39,0,0,0,.042-.147v-.316c-.021-.105-.042-.189-.063-.295l-.947-3.723L31.806,37.4l-1.767-6.963c-.547-2.188-1.115-4.4-1.662-6.584-.105-.4-.189-.778-.316-1.157A.861.861,0,0,0,27.662,22Z" transform="translate(0 -0.809)" fill="#0e1f4d"/>
    <g id="Group_7" data-name="Group 7" transform="translate(23.096 21.191)">
      <g id="Group_6" data-name="Group 6" transform="translate(0 0)" clip-path="url(#clip-path)">
        <path id="Path_7" data-name="Path 7" d="M41.318,47.422v-.084a9.584,9.584,0,0,1,.273-1.115c.105-.4.21-.778.295-1.178l.589-2.356c.189-.778.4-1.557.589-2.356.084-.295.147-.589.231-.884.589-2.293,1.157-4.586,1.746-6.879l1.872-7.194L47.8,21.9a3.744,3.744,0,0,1,.252-.61.655.655,0,0,1,.147-.189A.306.306,0,0,1,48.449,21h4.312a.228.228,0,0,1,.189.084.3.3,0,0,1,.042.126,1.826,1.826,0,0,1-.063.757c-.063.252-.126.5-.189.736-.126.526-.252,1.031-.4,1.557L50.574,31.2c-.61,2.419-1.241,4.838-1.851,7.258l-1.893,7.384c-.126.442-.231.9-.358,1.346a2.809,2.809,0,0,1-.147.379.94.94,0,0,1-.337.421H41.654c-.063,0-.168.021-.231-.021l-.063-.063A.744.744,0,0,1,41.318,47.422Z" transform="translate(-37.467 -21.21)" fill="#19214c"/>
        <path id="Path_8" data-name="Path 8" d="M42.718,47.422l.021-.084a9.583,9.583,0,0,1,.273-1.115c.105-.4.21-.778.295-1.178l.589-2.356.61-2.335.231-.884c.589-2.293,1.178-4.586,1.746-6.879l1.83-7.194.884-3.471a3.744,3.744,0,0,1,.252-.61.655.655,0,0,1,.147-.189A.3.3,0,0,1,49.849,21h4.312a.228.228,0,0,1,.189.084.3.3,0,0,1,.042.126,1.958,1.958,0,0,1-.063.778c-.063.252-.126.5-.189.736-.126.526-.252,1.031-.4,1.557l-1.767,6.942c-.61,2.419-1.241,4.838-1.851,7.258l-1.893,7.384c-.126.442-.231.9-.358,1.346a2.81,2.81,0,0,1-.147.379.94.94,0,0,1-.337.421H43.054c-.063,0-.168.021-.231-.021l-.063-.063A.823.823,0,0,1,42.718,47.422Z" transform="translate(-38.573 -21.21)" fill="#18204a"/>
        <path id="Path_9" data-name="Path 9" d="M44.118,47.4v-.084a9.584,9.584,0,0,1,.273-1.115c.105-.4.21-.778.295-1.178l.589-2.356c.21-.778.4-1.557.589-2.356.084-.295.147-.589.231-.884.589-2.293,1.157-4.586,1.746-6.879l1.83-7.194.884-3.471a3.744,3.744,0,0,1,.252-.61.655.655,0,0,1,.147-.189.274.274,0,0,1,.273-.105h4.312a.228.228,0,0,1,.189.084.3.3,0,0,1,.042.126,1.826,1.826,0,0,1-.063.757c-.063.252-.126.5-.189.736-.126.526-.252,1.031-.4,1.557l-1.767,6.942c-.61,2.419-1.241,4.838-1.851,7.258l-1.893,7.384c-.126.442-.231.9-.358,1.346a2.81,2.81,0,0,1-.147.379.94.94,0,0,1-.337.421H44.454c-.063,0-.168.021-.231-.021l-.063-.063A.744.744,0,0,1,44.118,47.4Z" transform="translate(-39.678 -21.19)" fill="#172048"/>
        <path id="Path_10" data-name="Path 10" d="M45.518,47.422l.021-.084a9.585,9.585,0,0,1,.273-1.115c.105-.4.21-.778.295-1.178l.589-2.356.589-2.335c.084-.295.147-.589.231-.884.589-2.293,1.178-4.586,1.746-6.879l1.83-7.194.884-3.471a3.744,3.744,0,0,1,.252-.61.655.655,0,0,1,.147-.189A.3.3,0,0,1,52.628,21h4.333a.228.228,0,0,1,.189.084.3.3,0,0,1,.042.126,1.826,1.826,0,0,1-.063.757c-.063.252-.126.5-.189.736l-.4,1.6-1.767,6.942c-.61,2.419-1.241,4.838-1.851,7.258l-1.893,7.384c-.126.442-.231.9-.358,1.346a2.81,2.81,0,0,1-.147.379.94.94,0,0,1-.337.421H45.854c-.063,0-.168.021-.231-.021l-.063-.063A.891.891,0,0,1,45.518,47.422Z" transform="translate(-40.784 -21.21)" fill="#171f46"/>
        <path id="Path_11" data-name="Path 11" d="M46.921,47.4a.126.126,0,0,1,.021-.084,9.585,9.585,0,0,1,.273-1.115c.105-.4.21-.778.295-1.178l.589-2.356c.21-.778.4-1.557.589-2.356.084-.295.147-.589.231-.884.589-2.293,1.157-4.586,1.746-6.879l1.83-7.194.884-3.471a3.744,3.744,0,0,1,.252-.61.655.655,0,0,1,.147-.189.274.274,0,0,1,.273-.105h4.312a.228.228,0,0,1,.189.084.3.3,0,0,1,.042.126,1.826,1.826,0,0,1-.063.757c-.063.252-.126.5-.189.736-.126.526-.252,1.031-.4,1.557l-1.767,6.942c-.61,2.419-1.241,4.838-1.851,7.258l-1.893,7.384c-.126.442-.231.9-.358,1.346a2.81,2.81,0,0,1-.147.379.94.94,0,0,1-.337.421H47.279c-.063,0-.168.021-.231-.021l-.063-.063A.631.631,0,0,1,46.921,47.4Z" transform="translate(-41.893 -21.19)" fill="#161f44"/>
        <path id="Path_12" data-name="Path 12" d="M48.353,47.4l.021-.084a9.584,9.584,0,0,1,.273-1.115c.105-.4.21-.778.295-1.178l.589-2.356.61-2.335c.084-.295.147-.589.231-.884.589-2.293,1.178-4.586,1.746-6.879l1.83-7.215.884-3.471a3.744,3.744,0,0,1,.252-.61.655.655,0,0,1,.147-.189.274.274,0,0,1,.273-.105h4.312a.228.228,0,0,1,.189.084.3.3,0,0,1,.042.126,1.826,1.826,0,0,1-.063.757c-.063.252-.126.5-.189.736l-.4,1.557L57.63,31.182c-.61,2.419-1.241,4.838-1.851,7.258l-1.893,7.384c-.126.442-.231.9-.358,1.346a2.81,2.81,0,0,1-.147.379.94.94,0,0,1-.337.421H48.689c-.063,0-.168.021-.231-.021l-.063-.063A.913.913,0,0,1,48.353,47.4Z" transform="translate(-43.03 -21.19)" fill="#161e41"/>
        <path id="Path_13" data-name="Path 13" d="M49.77,47.422l.021-.084a9.585,9.585,0,0,1,.273-1.115c.105-.4.21-.778.295-1.178l.589-2.356.589-2.335.231-.884c.589-2.293,1.157-4.586,1.746-6.879l1.83-7.194.884-3.471a3.744,3.744,0,0,1,.252-.61.655.655,0,0,1,.147-.189A.3.3,0,0,1,56.881,21h4.312a.228.228,0,0,1,.189.084.3.3,0,0,1,.042.126,1.826,1.826,0,0,1-.063.757c-.063.252-.126.5-.189.736-.126.526-.252,1.031-.4,1.557L59.005,31.2c-.61,2.419-1.241,4.838-1.851,7.258l-1.893,7.384c-.126.442-.231.9-.358,1.346a2.81,2.81,0,0,1-.147.379.94.94,0,0,1-.337.421H50.128c-.063,0-.168.021-.231-.021l-.063-.063A.908.908,0,0,1,49.77,47.422Z" transform="translate(-44.153 -21.21)" fill="#151e3f"/>
        <path id="Path_14" data-name="Path 14" d="M51.17,47.48l.021-.084a9.582,9.582,0,0,1,.273-1.115c.105-.4.21-.778.295-1.178l.589-2.356.61-2.335c.084-.295.147-.589.231-.884.589-2.293,1.178-4.586,1.746-6.879l1.83-7.194.884-3.471a3.744,3.744,0,0,1,.252-.61.655.655,0,0,1,.147-.189.256.256,0,0,1,.252-.105h4.312a.228.228,0,0,1,.189.084.3.3,0,0,1,.042.126,1.826,1.826,0,0,1-.063.757c-.063.252-.126.5-.189.736l-.4,1.557-1.767,6.942c-.61,2.419-1.241,4.838-1.851,7.258l-1.893,7.384c-.126.442-.231.9-.358,1.346a2.81,2.81,0,0,1-.147.379.94.94,0,0,1-.337.421H51.528c-.063,0-.168.021-.231-.021l-.063-.063A1.018,1.018,0,0,1,51.17,47.48Z" transform="translate(-45.258 -21.269)" fill="#141d3d"/>
        <path id="Path_15" data-name="Path 15" d="M52.57,47.422l.021-.084a9.585,9.585,0,0,1,.273-1.115c.105-.4.189-.778.295-1.178l.589-2.356.589-2.335.231-.884c.61-2.293,1.178-4.586,1.767-6.879l1.83-7.194.884-3.471a3.744,3.744,0,0,1,.252-.61.655.655,0,0,1,.147-.189A.3.3,0,0,1,59.7,21h4.312a.228.228,0,0,1,.189.084.3.3,0,0,1,.042.126,1.826,1.826,0,0,1-.063.757c-.063.252-.126.5-.189.736-.126.526-.252,1.031-.4,1.557L61.826,31.2,59.975,38.46l-1.893,7.384c-.126.442-.231.9-.358,1.346a2.81,2.81,0,0,1-.147.379.94.94,0,0,1-.337.421H52.928c-.063,0-.168.021-.231-.021l-.063-.063A.908.908,0,0,1,52.57,47.422Z" transform="translate(-46.364 -21.21)" fill="#141c3b"/>
        <path id="Path_16" data-name="Path 16" d="M53.97,47.422l.021-.084a9.585,9.585,0,0,1,.273-1.115c.105-.4.21-.778.295-1.178l.589-2.356.61-2.335c.084-.295.147-.589.231-.884.589-2.293,1.178-4.586,1.746-6.879l1.83-7.194.884-3.471a3.744,3.744,0,0,1,.252-.61.655.655,0,0,1,.147-.189A.329.329,0,0,1,61.1,21h4.312a.228.228,0,0,1,.189.084.3.3,0,0,1,.042.126,1.826,1.826,0,0,1-.063.757c-.063.252-.126.5-.189.736l-.4,1.557L63.205,31.2,61.354,38.46l-1.893,7.384c-.126.442-.231.9-.358,1.346a2.809,2.809,0,0,1-.147.379.94.94,0,0,1-.337.421H54.328c-.063,0-.168.021-.231-.021l-.063-.063A.908.908,0,0,1,53.97,47.422Z" transform="translate(-47.469 -21.21)" fill="#131b39"/>
      </g>
    </g>
    <path id="Path_18" data-name="Path 18" d="M59.918,48.732H55.479a.279.279,0,0,1-.126-.21,1.711,1.711,0,0,1,.042-.652l1.052-4.186c.589-2.293,1.157-4.607,1.746-6.9L59.96,29.82l1.578-6.248c.084-.316.168-.631.273-.947a.978.978,0,0,1,.273-.442.378.378,0,0,1,.189-.084h4.27a.167.167,0,0,1,.168.105.39.39,0,0,1,.042.147v.316c-.021.105-.042.189-.063.295l-.947,3.723-1.683,6.647L62.295,40.3c-.547,2.188-1.115,4.4-1.662,6.584-.105.4-.189.778-.316,1.157A1.028,1.028,0,0,1,59.918,48.732Z" transform="translate(-25.461 -0.888)" fill="#0e1f4d"/>
    <g id="Group_9" data-name="Group 9" transform="translate(29.879 21.212)">
      <g id="Group_8" data-name="Group 8" transform="translate(0 0)" clip-path="url(#clip-path-2)">
        <path id="Path_19" data-name="Path 19" d="M66.407,30.658a1.021,1.021,0,0,0,0-.358.233.233,0,0,0-.252-.21H55.195a.278.278,0,0,0-.295.252v.042a1.2,1.2,0,0,0,.021.273l1.073,3.976a.438.438,0,0,0,.463.358H65.25l.042-.168C65.671,33.414,66.049,32.025,66.407,30.658Z" transform="translate(-54.993 -28.407)" fill="#19214c"/>
        <path id="Path_20" data-name="Path 20" d="M66.407,29.858a1.021,1.021,0,0,0,0-.358.233.233,0,0,0-.252-.21H55.195a.278.278,0,0,0-.295.252v.042a1.2,1.2,0,0,0,.021.273l1.073,3.976a.438.438,0,0,0,.463.358H65.25L65.292,34C65.671,32.635,66.049,31.246,66.407,29.858Z" transform="translate(-54.993 -27.775)" fill="#18204a"/>
        <path id="Path_21" data-name="Path 21" d="M66.407,29.158a1.021,1.021,0,0,0,0-.358.233.233,0,0,0-.252-.21H55.195a.278.278,0,0,0-.295.252v.042a1.024,1.024,0,0,0,.021.252l1.073,3.976a.438.438,0,0,0,.463.358H65.25l.042-.189C65.671,31.935,66.049,30.546,66.407,29.158Z" transform="translate(-54.993 -27.223)" fill="#172048"/>
        <path id="Path_22" data-name="Path 22" d="M66.407,28.458a1.021,1.021,0,0,0,0-.358.233.233,0,0,0-.252-.21H55.195a.278.278,0,0,0-.295.252v.042a1.2,1.2,0,0,0,.021.273c.358,1.325.715,2.651,1.094,3.976a.438.438,0,0,0,.463.358h8.793l.042-.189C65.671,31.214,66.049,29.846,66.407,28.458Z" transform="translate(-54.993 -26.67)" fill="#161f45"/>
        <path id="Path_23" data-name="Path 23" d="M66.407,27.658a1.021,1.021,0,0,0,0-.358.233.233,0,0,0-.252-.21H55.195a.278.278,0,0,0-.295.252v.042a1.2,1.2,0,0,0,.021.273l1.073,3.976a.438.438,0,0,0,.463.358H65.25l.042-.189C65.671,30.435,66.049,29.046,66.407,27.658Z" transform="translate(-54.993 -26.038)" fill="#161e43"/>
        <path id="Path_24" data-name="Path 24" d="M66.407,26.958a1.021,1.021,0,0,0,0-.358.233.233,0,0,0-.252-.21H55.195a.278.278,0,0,0-.295.252v.042a1.2,1.2,0,0,0,.021.273c.358,1.325.715,2.651,1.094,3.976a.438.438,0,0,0,.463.358h8.793l.042-.189C65.671,29.735,66.049,28.346,66.407,26.958Z" transform="translate(-54.993 -25.485)" fill="#151e41"/>
        <path id="Path_25" data-name="Path 25" d="M66.407,26.258a1.021,1.021,0,0,0,0-.358.233.233,0,0,0-.252-.21H55.195a.278.278,0,0,0-.295.252v.042a1.2,1.2,0,0,0,.021.273l1.073,3.976a.438.438,0,0,0,.463.358H65.25l.042-.168C65.671,29.014,66.049,27.646,66.407,26.258Z" transform="translate(-54.993 -24.933)" fill="#141d3f"/>
        <path id="Path_26" data-name="Path 26" d="M66.407,25.458a1.021,1.021,0,0,0,0-.358.233.233,0,0,0-.252-.21H55.195a.278.278,0,0,0-.295.252v.042a1.2,1.2,0,0,0,.021.273l1.073,3.976a.438.438,0,0,0,.463.358H65.25l.042-.168C65.671,28.235,66.049,26.846,66.407,25.458Z" transform="translate(-54.993 -24.301)" fill="#131c3d"/>
        <path id="Path_27" data-name="Path 27" d="M66.407,24.758a1.021,1.021,0,0,0,0-.358.233.233,0,0,0-.252-.21H55.195a.278.278,0,0,0-.295.252v.042a1.2,1.2,0,0,0,.021.273l1.073,3.976a.438.438,0,0,0,.463.358H65.25l.042-.168C65.671,27.535,66.049,26.146,66.407,24.758Z" transform="translate(-54.993 -23.748)" fill="#131b3a"/>
        <path id="Path_28" data-name="Path 28" d="M66.407,24.058a1.021,1.021,0,0,0,0-.358.233.233,0,0,0-.252-.21H55.195a.278.278,0,0,0-.295.252v.042a1.2,1.2,0,0,0,.021.273l1.073,3.976a.438.438,0,0,0,.463.358H65.25l.042-.168C65.671,26.814,66.049,25.446,66.407,24.058Z" transform="translate(-54.993 -23.195)" fill="#121b38"/>
      </g>
    </g>
    <path id="Path_30" data-name="Path 30" d="M54.7,22.453v-.21l.021-.063a.253.253,0,0,1,.252-.189h11a.253.253,0,0,1,.273.21h0a1.021,1.021,0,0,1,0,.358l-1.01,3.913a.578.578,0,0,1-.337.421H56.13a.524.524,0,0,1-.316-.379c-.273-1.052-.568-2.125-.862-3.176Z" transform="translate(-24.956 -0.799)" fill="#0e1f4d"/>
  </g>
</svg>
