<svg xmlns="http://www.w3.org/2000/svg" xmlns:xlink="http://www.w3.org/1999/xlink" width="400" zoomAndPan="magnify" viewBox="0 0 300 299.999988" height="400" preserveAspectRatio="xMidYMid meet" version="1.0"><path fill="#6d2ae2" d="M 246.457031 103.085938 C 243.359375 102.019531 240.140625 101.007812 236.820312 100.050781 C 237.371094 97.828125 237.871094 95.636719 238.316406 93.480469 C 245.601562 58.085938 240.84375 29.570312 224.554688 20.179688 C 208.929688 11.179688 183.386719 20.566406 157.589844 43.003906 C 155.109375 45.164062 152.621094 47.445312 150.140625 49.839844 C 148.480469 48.257812 146.832031 46.726562 145.183594 45.261719 C 118.144531 21.269531 91.042969 11.15625 74.773438 20.570312 C 59.167969 29.601562 54.546875 56.40625 61.117188 89.953125 C 61.75 93.191406 62.492188 96.5 63.328125 99.867188 C 59.492188 100.953125 55.789062 102.113281 52.25 103.347656 C 20.550781 114.394531 0.308594 131.703125 0.308594 149.664062 C 0.308594 168.203125 22.039062 186.8125 55.054688 198.089844 C 57.660156 198.980469 60.363281 199.820312 63.148438 200.617188 C 62.242188 204.25 61.457031 207.816406 60.796875 211.300781 C 54.535156 244.261719 59.425781 270.433594 74.988281 279.402344 C 91.0625 288.671875 118.039062 279.144531 144.304688 256.199219 C 146.386719 254.386719 148.46875 252.457031 150.550781 250.445312 C 153.261719 253.042969 155.964844 255.507812 158.640625 257.824219 C 184.089844 279.703125 209.222656 288.542969 224.761719 279.550781 C 240.820312 270.257812 246.046875 242.136719 239.265625 207.933594 C 238.75 205.316406 238.140625 202.648438 237.476562 199.9375 C 239.371094 199.375 241.230469 198.792969 243.042969 198.195312 C 277.367188 186.824219 299.691406 168.460938 299.691406 149.664062 C 299.691406 131.640625 278.792969 114.210938 246.457031 103.085938 Z M 239.019531 186.0625 C 237.382812 186.601562 235.699219 187.125 233.992188 187.628906 C 230.203125 175.648438 225.089844 162.894531 218.824219 149.722656 C 224.796875 136.863281 229.710938 124.277344 233.394531 112.367188 C 236.457031 113.253906 239.429688 114.1875 242.292969 115.171875 C 269.996094 124.707031 286.898438 138.804688 286.898438 149.664062 C 286.898438 161.222656 268.652344 176.242188 239.019531 186.0625 Z M 226.714844 210.410156 C 229.722656 225.539062 230.144531 239.214844 228.15625 249.910156 C 226.378906 259.515625 222.785156 265.921875 218.355469 268.484375 C 208.917969 273.941406 188.742188 266.847656 166.992188 248.132812 C 164.488281 245.980469 161.976562 243.691406 159.460938 241.269531 C 167.894531 232.046875 176.324219 221.328125 184.558594 209.417969 C 199.023438 208.144531 212.695312 206.039062 225.101562 203.175781 C 225.710938 205.640625 226.25 208.050781 226.714844 210.410156 Z M 102.378906 267.535156 C 93.160156 270.796875 85.820312 270.890625 81.382812 268.332031 C 71.9375 262.882812 68.011719 241.867188 73.367188 213.683594 C 73.980469 210.457031 74.710938 207.136719 75.554688 203.75 C 87.816406 206.460938 101.390625 208.414062 115.898438 209.582031 C 124.183594 221.234375 132.859375 231.941406 141.597656 241.316406 C 139.691406 243.164062 137.785156 244.917969 135.890625 246.566406 C 124.277344 256.722656 112.636719 263.925781 102.378906 267.535156 Z M 59.195312 185.992188 C 44.597656 181 32.539062 174.527344 24.277344 167.441406 C 16.851562 161.09375 13.101562 154.78125 13.101562 149.664062 C 13.101562 138.769531 29.355469 124.867188 56.460938 115.417969 C 59.75 114.273438 63.195312 113.191406 66.765625 112.179688 C 70.515625 124.359375 75.429688 137.097656 81.359375 149.96875 C 75.351562 163.035156 70.367188 175.976562 66.582031 188.308594 C 64.035156 187.570312 61.570312 186.800781 59.195312 185.992188 Z M 73.671875 87.496094 C 68.042969 58.757812 71.78125 37.078125 81.183594 31.636719 C 91.199219 25.839844 113.347656 34.101562 136.683594 54.820312 C 138.179688 56.144531 139.679688 57.53125 141.1875 58.964844 C 132.484375 68.300781 123.890625 78.929688 115.679688 90.511719 C 101.597656 91.816406 88.121094 93.910156 75.730469 96.71875 C 74.949219 93.585938 74.261719 90.507812 73.671875 87.496094 Z M 202.800781 119.371094 C 199.84375 114.257812 196.804688 109.261719 193.703125 104.40625 C 203.257812 105.613281 212.402344 107.214844 221 109.175781 C 218.425781 117.441406 215.210938 126.082031 211.421875 134.945312 C 208.707031 129.789062 205.832031 124.59375 202.800781 119.371094 Z M 150.140625 68.101562 C 156.046875 74.488281 161.953125 81.621094 167.765625 89.359375 C 161.90625 89.082031 155.976562 88.9375 150 88.9375 C 144.082031 88.9375 138.203125 89.078125 132.378906 89.351562 C 138.191406 81.683594 144.152344 74.5625 150.140625 68.101562 Z M 97.144531 119.460938 C 94.183594 124.585938 91.367188 129.753906 88.691406 134.933594 C 84.96875 126.105469 81.78125 117.421875 79.179688 109.039062 C 87.722656 107.128906 96.832031 105.566406 106.320312 104.382812 C 103.175781 109.285156 100.109375 114.316406 97.144531 119.457031 Z M 106.59375 195.847656 C 96.789062 194.757812 87.542969 193.273438 79.003906 191.417969 C 81.648438 182.882812 84.902344 174.023438 88.707031 165 C 91.386719 170.175781 94.21875 175.34375 97.195312 180.488281 C 100.226562 185.722656 103.371094 190.84375 106.59375 195.847656 Z M 150.492188 232.117188 C 144.433594 225.582031 138.386719 218.347656 132.484375 210.574219 C 138.214844 210.796875 144.058594 210.914062 150 210.914062 C 156.105469 210.914062 162.140625 210.773438 168.070312 210.515625 C 162.246094 218.429688 156.351562 225.675781 150.492188 232.117188 Z M 211.539062 164.542969 C 215.539062 173.660156 218.917969 182.472656 221.59375 190.867188 C 212.917969 192.84375 203.539062 194.433594 193.667969 195.625 C 196.78125 190.703125 199.84375 185.617188 202.859375 180.394531 C 205.914062 175.109375 208.800781 169.816406 211.539062 164.542969 Z M 191.773438 174.011719 C 187.097656 182.125 182.289062 189.863281 177.414062 197.167969 C 168.535156 197.796875 159.355469 198.125 150 198.125 C 140.679688 198.125 131.617188 197.84375 122.894531 197.273438 C 117.816406 189.875 112.910156 182.113281 108.261719 174.082031 C 103.625 166.074219 99.355469 157.996094 95.488281 149.96875 C 99.355469 141.925781 103.613281 133.835938 108.226562 125.84375 L 108.222656 125.84375 C 112.847656 117.832031 117.710938 110.105469 122.742188 102.746094 C 131.640625 102.074219 140.773438 101.722656 150 101.722656 C 159.273438 101.722656 168.410156 102.078125 177.308594 102.753906 C 182.265625 110.058594 187.097656 117.761719 191.738281 125.777344 C 196.429688 133.882812 200.742188 141.914062 204.636719 149.792969 C 200.753906 157.796875 196.453125 165.910156 191.773438 174.011719 Z M 218.15625 31.253906 C 228.191406 37.03125 232.085938 60.335938 225.78125 90.898438 C 225.382812 92.847656 224.929688 94.832031 224.4375 96.84375 C 212.015625 93.980469 198.535156 91.851562 184.417969 90.523438 C 176.183594 78.816406 167.660156 68.171875 159.097656 58.957031 C 161.402344 56.742188 163.707031 54.632812 165.988281 52.644531 C 188.089844 33.417969 208.753906 25.828125 218.15625 31.253906 Z M 150 122.9375 C 164.757812 122.9375 176.734375 134.894531 176.734375 149.660156 C 176.734375 164.410156 164.757812 176.378906 150 176.378906 C 135.242188 176.378906 123.265625 164.410156 123.265625 149.660156 C 123.265625 134.894531 135.242188 122.9375 150 122.9375 Z M 150 122.9375 " fill-opacity="1" fill-rule="nonzero"/></svg>