<svg xmlns="http://www.w3.org/2000/svg" xmlns:xlink="http://www.w3.org/1999/xlink" width="400" zoomAndPan="magnify" viewBox="0 0 300 299.999988" height="400" preserveAspectRatio="xMidYMid meet" version="1.0"><defs><clipPath id="733f22d120"><path d="M 38 41.78125 L 267 41.78125 L 267 258.53125 L 38 258.53125 Z M 38 41.78125 " clip-rule="nonzero"/></clipPath></defs><g clip-path="url(#733f22d120)"><path fill="#764abc" d="M 196.429688 193.175781 C 204.847656 192.3125 211.234375 185.042969 210.941406 176.328125 C 210.644531 167.605469 203.394531 160.636719 194.695312 160.636719 L 194.105469 160.636719 C 185.121094 160.921875 178.152344 168.476562 178.4375 177.488281 C 178.734375 181.847656 180.46875 185.621094 183.089844 188.234375 C 173.21875 207.707031 158.132812 221.953125 135.5 233.859375 C 120.121094 241.996094 104.164062 244.902344 88.203125 242.867188 C 75.148438 241.128906 64.992188 235.3125 58.609375 225.726562 C 49.324219 211.488281 48.453125 196.085938 56.285156 180.679688 C 61.800781 169.636719 70.503906 161.503906 76.015625 157.433594 C 74.855469 153.664062 73.117188 147.265625 72.246094 142.621094 C 30.171875 173.125 34.523438 214.386719 47.292969 233.859375 C 56.867188 248.390625 76.308594 257.398438 97.777344 257.398438 C 103.582031 257.398438 109.386719 256.820312 115.1875 255.367188 C 152.324219 248.105469 180.46875 226.019531 196.429688 193.175781 Z M 247.503906 157.148438 C 225.449219 131.28125 192.949219 117.042969 155.808594 117.042969 L 151.167969 117.042969 C 148.558594 111.8125 143.042969 108.328125 136.953125 108.328125 L 136.371094 108.328125 C 127.375 108.617188 120.410156 116.171875 120.703125 125.179688 C 120.992188 133.894531 128.242188 140.871094 136.953125 140.871094 L 137.53125 140.871094 C 143.917969 140.585938 149.429688 136.519531 151.746094 130.996094 L 156.972656 130.996094 C 179.019531 130.996094 199.914062 137.382812 218.777344 149.878906 C 233.277344 159.46875 243.726562 171.964844 249.53125 187.074219 C 254.46875 199.277344 254.171875 211.195312 248.953125 221.363281 C 240.820312 236.765625 227.1875 245.195312 209.195312 245.195312 C 197.589844 245.195312 186.5625 241.710938 180.765625 239.09375 C 177.574219 241.996094 171.769531 246.652344 167.707031 249.550781 C 180.183594 255.367188 192.949219 258.558594 205.132812 258.558594 C 232.992188 258.558594 253.59375 243.164062 261.421875 227.757812 C 269.839844 210.910156 269.261719 181.847656 247.503906 157.148438 Z M 100.09375 198.117188 C 100.386719 206.832031 107.640625 213.808594 116.34375 213.808594 L 116.925781 213.808594 C 125.917969 213.523438 132.886719 205.96875 132.589844 196.957031 C 132.308594 188.234375 125.046875 181.269531 116.34375 181.269531 L 115.765625 181.269531 C 115.183594 181.269531 114.3125 181.269531 113.734375 181.554688 C 101.835938 161.796875 96.902344 140.292969 98.644531 117.042969 C 99.804688 99.609375 105.609375 84.5 115.765625 72.003906 C 124.179688 61.25 140.429688 56.019531 151.457031 55.730469 C 182.210938 55.148438 195.269531 93.507812 196.140625 108.910156 C 199.910156 109.78125 206.296875 111.8125 210.640625 113.265625 C 207.160156 66.191406 178.148438 41.78125 150.289062 41.78125 C 124.179688 41.78125 100.09375 60.671875 90.519531 88.566406 C 77.171875 125.761719 85.878906 161.503906 102.125 189.691406 C 100.675781 191.722656 99.804688 194.925781 100.09375 198.121094 Z M 100.09375 198.117188 " fill-opacity="1" fill-rule="nonzero"/></g></svg>