<svg xmlns="http://www.w3.org/2000/svg" xmlns:xlink="http://www.w3.org/1999/xlink" width="400" zoomAndPan="magnify" viewBox="0 0 300 299.999988" height="400" preserveAspectRatio="xMidYMid meet" version="1.0"><path fill="#007acc" d="M 30 270 L 270 270 L 270 30 L 30 30 Z M 30 270 " fill-opacity="1" fill-rule="nonzero"/><path fill="#ffffff" d="M 83.0625 150.789062 L 82.988281 160.621094 L 114.226562 160.621094 L 114.226562 249.382812 L 136.320312 249.382812 L 136.320312 160.621094 L 167.558594 160.621094 L 167.558594 150.984375 C 167.558594 145.648438 167.445312 141.1875 167.292969 141.074219 C 167.179688 140.925781 148.167969 140.851562 125.117188 140.886719 L 83.175781 141 Z M 83.0625 150.789062 " fill-opacity="1" fill-rule="nonzero"/><path fill="#ffffff" d="M 223.660156 140.726562 C 229.753906 142.246094 234.402344 144.957031 238.667969 149.371094 C 240.871094 151.734375 244.152344 156.039062 244.414062 157.070312 C 244.492188 157.378906 234.054688 164.382812 227.726562 168.308594 C 227.503906 168.460938 226.59375 167.464844 225.5625 165.945312 C 222.476562 161.445312 219.234375 159.507812 214.285156 159.167969 C 207.007812 158.671875 202.320312 162.476562 202.359375 168.84375 C 202.359375 170.710938 202.632812 171.816406 203.390625 173.335938 C 204.992188 176.652344 207.964844 178.632812 217.292969 182.671875 C 234.476562 190.058594 241.828125 194.933594 246.402344 201.871094 C 251.503906 209.605469 252.648438 221.945312 249.179688 231.121094 C 245.371094 241.105469 235.921875 247.882812 222.628906 250.132812 C 218.511719 250.855469 208.761719 250.742188 204.335938 249.945312 C 194.699219 248.230469 185.558594 243.46875 179.925781 237.226562 C 177.710938 234.789062 173.410156 228.421875 173.671875 227.960938 C 173.792969 227.8125 174.777344 227.203125 175.882812 226.554688 C 176.953125 225.945312 180.992188 223.621094 184.800781 221.410156 L 191.691406 217.414062 L 193.144531 219.542969 C 195.160156 222.628906 199.585938 226.855469 202.246094 228.273438 C 209.90625 232.304688 220.414062 231.730469 225.601562 227.089844 C 227.8125 225.066406 228.722656 222.976562 228.722656 219.890625 C 228.722656 217.105469 228.382812 215.886719 226.929688 213.796875 C 225.066406 211.125 221.257812 208.875 210.441406 204.195312 C 198.054688 198.863281 192.722656 195.542969 187.847656 190.285156 C 185.023438 187.238281 182.363281 182.363281 181.257812 178.285156 C 180.335938 174.898438 180.113281 166.40625 180.835938 162.976562 C 183.394531 151.011719 192.421875 142.667969 205.445312 140.195312 C 209.671875 139.398438 219.507812 139.695312 223.660156 140.726562 Z M 223.660156 140.726562 " fill-opacity="1" fill-rule="nonzero"/></svg>